#Comment line ignore any data following # character 
#Hierarchical Translation and Rotation (.htr) file 
[Header]	
#Header keywords are followed by a single value 
FileType HTR		#Single word string
DataType HTRS		#Translation followed by rotation and scale data
FileVersion 1		#integer
NumSegments 84		#integer
NumFrames 2		#integer
DataFrameRate 30		#integer, data frame rate in this file
EulerRotationOrder ZYX
CalibrationUnits mm
RotationUnits Degrees
GlobalAxisofGravity Y
BoneLengthAxis Y
ScaleFactor 1.00
[SegmentNames&Hierarchy]
#CHILD	PARENT
MASTER GLOBAL
root MASTER
chest root
L_mid_tent01 root
R_mid_tent01 root
spine01 root
Bip01_Neck chest
L_humerus chest
R_humerus chest
weapon_bone chest
Bip01_Head Bip01_Neck
eye_left_bone Bip01_Head
eye_right_bone Bip01_Head
L_forearm L_humerus
L_front_hand L_forearm
L_weapon_bone L_forearm
L_front_hand01_01 L_front_hand
L_front_hand02_01 L_front_hand
L_front_hand03_01 L_front_hand
L_front_hand01_02 L_front_hand01_01
L_front_hand02_02 L_front_hand02_01
L_front_hand03_02 L_front_hand03_01
R_forearm R_humerus
R_front_hand R_forearm
R_weapon_bone R_forearm
R_front_hand01_01 R_front_hand
R_front_hand02_01 R_front_hand
R_front_hand03_01 R_front_hand
R_front_hand01_02 R_front_hand01_01
R_front_hand02_02 R_front_hand02_01
R_front_hand03_02 R_front_hand03_01
null_rope01_connect L_mid_tent01
Rope1_Seg01 null_rope01_connect
Rope1_Seg02 Rope1_Seg01
Rope1_Seg03 Rope1_Seg02
Rope1_Seg04 Rope1_Seg03
Rope1_Seg05 Rope1_Seg04
Rope1_Seg06 Rope1_Seg05
Rope1_Seg07 Rope1_Seg06
Rope1_Seg09 Rope1_Seg07
L_mid_hand01 Rope1_Seg09
L_mid_hand02 Rope1_Seg09
L_mid_hand03 Rope1_Seg09
null_rope02_connect R_mid_tent01
Rope2_Seg01 null_rope02_connect
Rope2_Seg02 Rope2_Seg01
Rope2_Seg03 Rope2_Seg02
Rope2_Seg04 Rope2_Seg03
Rope2_Seg05 Rope2_Seg04
Rope2_Seg06 Rope2_Seg05
Rope2_Seg07 Rope2_Seg06
Rope2_Seg09 Rope2_Seg07
R_mid_hand01 Rope2_Seg09
R_mid_hand02 Rope2_Seg09
R_mid_hand03 Rope2_Seg09
spine02 spine01
spine03 spine02
pelvis spine03
null_rope03_connect pelvis
null_rope04_connect pelvis
Rope3_Seg01 null_rope03_connect
Rope3_Seg02 Rope3_Seg01
Rope3_Seg03 Rope3_Seg02
Rope3_Seg04 Rope3_Seg03
Rope3_Seg05 Rope3_Seg04
Rope3_Seg06 Rope3_Seg05
Rope3_Seg07 Rope3_Seg06
Rope3_Seg08 Rope3_Seg07
Rope3_Seg09 Rope3_Seg08
R_rear_hand01 Rope3_Seg09
R_rear_hand02 Rope3_Seg09
R_rear_hand03 Rope3_Seg09
Rope4_Seg01 null_rope04_connect
Rope4_Seg02 Rope4_Seg01
Rope4_Seg03 Rope4_Seg02
Rope4_Seg04 Rope4_Seg03
Rope4_Seg05 Rope4_Seg04
Rope4_Seg06 Rope4_Seg05
Rope4_Seg07 Rope4_Seg06
Rope4_Seg08 Rope4_Seg07
Rope4_Seg09 Rope4_Seg08
L_rear_hand01 Rope4_Seg09
L_rear_hand02 Rope4_Seg09
L_rear_hand03 Rope4_Seg09
[BasePosition]
#SegmentName Tx, Ty, Tz, Rx, Ry, Rz, BoneLength
MASTER 0.000000 0.000000 0.000000 -90.000000 0.000000 0.000000 10.000000 
root 0.000000 0.000000 0.000000 0.000000 0.000000 0.000000 10.000000 
chest 0.000000 0.000000 0.000000 0.000000 0.000000 0.000000 10.000000 
L_mid_tent01 0.000000 0.000000 0.000000 0.000000 0.000000 0.000000 10.000000 
R_mid_tent01 0.000000 0.000000 0.000000 0.000000 0.000000 0.000000 10.000000 
spine01 0.000000 0.000000 0.000000 0.000000 0.000000 0.000000 10.000000 
Bip01_Neck 0.000000 0.000000 0.000000 0.000000 0.000000 0.000000 10.000000 
L_humerus 0.000000 0.000000 0.000000 0.000000 0.000000 0.000000 10.000000 
R_humerus 0.000000 0.000000 0.000000 0.000000 0.000000 0.000000 10.000000 
weapon_bone 0.000000 0.000000 0.000000 0.000000 0.000000 0.000000 10.000000 
Bip01_Head 0.000000 0.000000 0.000000 0.000000 0.000000 0.000000 10.000000 
eye_left_bone 0.000000 0.000000 0.000000 0.000000 0.000000 0.000000 10.000000 
eye_right_bone 0.000000 0.000000 0.000000 0.000000 0.000000 0.000000 10.000000 
L_forearm 0.000000 0.000000 0.000000 0.000000 0.000000 0.000000 10.000000 
L_front_hand 0.000000 0.000000 0.000000 0.000000 0.000000 0.000000 10.000000 
L_weapon_bone 0.000000 0.000000 0.000000 0.000000 0.000000 0.000000 10.000000 
L_front_hand01_01 0.000000 0.000000 0.000000 0.000000 0.000000 0.000000 10.000000 
L_front_hand02_01 0.000000 0.000000 0.000000 0.000000 0.000000 0.000000 10.000000 
L_front_hand03_01 0.000000 0.000000 0.000000 0.000000 0.000000 0.000000 10.000000 
L_front_hand01_02 0.000000 0.000000 0.000000 0.000000 0.000000 0.000000 10.000000 
L_front_hand02_02 0.000000 0.000000 0.000000 0.000000 0.000000 0.000000 10.000000 
L_front_hand03_02 0.000000 0.000000 0.000000 0.000000 0.000000 0.000000 10.000000 
R_forearm 0.000000 0.000000 0.000000 0.000000 0.000000 0.000000 10.000000 
R_front_hand 0.000000 0.000000 0.000000 0.000000 0.000000 0.000000 10.000000 
R_weapon_bone 0.000000 0.000000 0.000000 0.000000 0.000000 0.000000 10.000000 
R_front_hand01_01 0.000000 0.000000 0.000000 0.000000 0.000000 0.000000 10.000000 
R_front_hand02_01 0.000000 0.000000 0.000000 0.000000 0.000000 0.000000 10.000000 
R_front_hand03_01 0.000000 0.000000 0.000000 0.000000 0.000000 0.000000 10.000000 
R_front_hand01_02 0.000000 0.000000 0.000000 0.000000 0.000000 0.000000 10.000000 
R_front_hand02_02 0.000000 0.000000 0.000000 0.000000 0.000000 0.000000 10.000000 
R_front_hand03_02 0.000000 0.000000 0.000000 0.000000 0.000000 0.000000 10.000000 
null_rope01_connect 0.000000 0.000000 0.000000 0.000000 0.000000 0.000000 10.000000 
Rope1_Seg01 0.000000 0.000000 0.000000 0.000000 0.000000 0.000000 10.000000 
Rope1_Seg02 0.000000 0.000000 0.000000 0.000000 0.000000 0.000000 10.000000 
Rope1_Seg03 0.000000 0.000000 0.000000 0.000000 0.000000 0.000000 10.000000 
Rope1_Seg04 0.000000 0.000000 0.000000 0.000000 0.000000 0.000000 10.000000 
Rope1_Seg05 0.000000 0.000000 0.000000 0.000000 0.000000 0.000000 10.000000 
Rope1_Seg06 0.000000 0.000000 0.000000 0.000000 0.000000 0.000000 10.000000 
Rope1_Seg07 0.000000 0.000000 0.000000 0.000000 0.000000 0.000000 10.000000 
Rope1_Seg09 0.000000 0.000000 0.000000 0.000000 0.000000 0.000000 10.000000 
L_mid_hand01 0.000000 0.000000 0.000000 0.000000 0.000000 0.000000 10.000000 
L_mid_hand02 0.000000 0.000000 0.000000 0.000000 0.000000 0.000000 10.000000 
L_mid_hand03 0.000000 0.000000 0.000000 0.000000 0.000000 0.000000 10.000000 
null_rope02_connect 0.000000 0.000000 0.000000 0.000000 0.000000 0.000000 10.000000 
Rope2_Seg01 0.000000 0.000000 0.000000 0.000000 0.000000 0.000000 10.000000 
Rope2_Seg02 0.000000 0.000000 0.000000 0.000000 0.000000 0.000000 10.000000 
Rope2_Seg03 0.000000 0.000000 0.000000 0.000000 0.000000 0.000000 10.000000 
Rope2_Seg04 0.000000 0.000000 0.000000 0.000000 0.000000 0.000000 10.000000 
Rope2_Seg05 0.000000 0.000000 0.000000 0.000000 0.000000 0.000000 10.000000 
Rope2_Seg06 0.000000 0.000000 0.000000 0.000000 0.000000 0.000000 10.000000 
Rope2_Seg07 0.000000 0.000000 0.000000 0.000000 0.000000 0.000000 10.000000 
Rope2_Seg09 0.000000 0.000000 0.000000 0.000000 0.000000 0.000000 10.000000 
R_mid_hand01 0.000000 0.000000 0.000000 0.000000 0.000000 0.000000 10.000000 
R_mid_hand02 0.000000 0.000000 0.000000 0.000000 0.000000 0.000000 10.000000 
R_mid_hand03 0.000000 0.000000 0.000000 0.000000 0.000000 0.000000 10.000000 
spine02 0.000000 0.000000 0.000000 0.000000 0.000000 0.000000 10.000000 
spine03 0.000000 0.000000 0.000000 0.000000 0.000000 0.000000 10.000000 
pelvis 0.000000 0.000000 0.000000 0.000000 0.000000 0.000000 10.000000 
null_rope03_connect 0.000000 0.000000 0.000000 0.000000 0.000000 0.000000 10.000000 
null_rope04_connect 0.000000 0.000000 0.000000 0.000000 0.000000 0.000000 10.000000 
Rope3_Seg01 0.000000 0.000000 0.000000 0.000000 0.000000 0.000000 10.000000 
Rope3_Seg02 0.000000 0.000000 0.000000 0.000000 0.000000 0.000000 10.000000 
Rope3_Seg03 0.000000 0.000000 0.000000 0.000000 0.000000 0.000000 10.000000 
Rope3_Seg04 0.000000 0.000000 0.000000 0.000000 0.000000 0.000000 10.000000 
Rope3_Seg05 0.000000 0.000000 0.000000 0.000000 0.000000 0.000000 10.000000 
Rope3_Seg06 0.000000 0.000000 0.000000 0.000000 0.000000 0.000000 10.000000 
Rope3_Seg07 0.000000 0.000000 0.000000 0.000000 0.000000 0.000000 10.000000 
Rope3_Seg08 0.000000 0.000000 0.000000 0.000000 0.000000 0.000000 10.000000 
Rope3_Seg09 0.000000 0.000000 0.000000 0.000000 0.000000 0.000000 10.000000 
R_rear_hand01 0.000000 0.000000 0.000000 0.000000 0.000000 0.000000 10.000000 
R_rear_hand02 0.000000 0.000000 0.000000 0.000000 0.000000 0.000000 10.000000 
R_rear_hand03 0.000000 0.000000 0.000000 0.000000 0.000000 0.000000 10.000000 
Rope4_Seg01 0.000000 0.000000 0.000000 0.000000 0.000000 0.000000 10.000000 
Rope4_Seg02 0.000000 0.000000 0.000000 0.000000 0.000000 0.000000 10.000000 
Rope4_Seg03 0.000000 0.000000 0.000000 0.000000 0.000000 0.000000 10.000000 
Rope4_Seg04 0.000000 0.000000 0.000000 0.000000 0.000000 0.000000 10.000000 
Rope4_Seg05 0.000000 0.000000 0.000000 0.000000 0.000000 0.000000 10.000000 
Rope4_Seg06 0.000000 0.000000 0.000000 0.000000 0.000000 0.000000 10.000000 
Rope4_Seg07 0.000000 0.000000 0.000000 0.000000 0.000000 0.000000 10.000000 
Rope4_Seg08 0.000000 0.000000 0.000000 0.000000 0.000000 0.000000 10.000000 
Rope4_Seg09 0.000000 0.000000 0.000000 0.000000 0.000000 0.000000 10.000000 
L_rear_hand01 0.000000 0.000000 0.000000 0.000000 0.000000 0.000000 10.000000 
L_rear_hand02 0.000000 0.000000 0.000000 0.000000 0.000000 0.000000 10.000000 
L_rear_hand03 0.000000 0.000000 0.000000 0.000000 0.000000 0.000000 10.000000 
#Beginning of Data. Separated by tabs
#Fr	Tx	Ty	Tz	Rx	Ry	Rz	SF
[MASTER]
14 0.000000 0.000000 0.000000 0.001660 0.001660 0.001660 0.000000
15 0.000000 0.000000 0.000000 0.001660 0.001660 0.001660 0.000000
[root]
14 -118.980057 191.715088 1548.850464 -98.718323 -15.645401 -35.944656 1565.199219
15 -155.110428 369.378113 1553.045654 -104.086403 -16.888752 -33.165184 1603.885986
[chest]
14 -84.512650 -34.090519 0.000000 5.914201 -2.683483 -179.283310 91.129311
15 -84.512650 -34.090519 0.000000 7.137575 -2.153435 -179.110046 91.129311
[L_mid_tent01]
14 27.299099 22.179192 -249.918839 -31.412737 33.649662 3.783700 252.381805
15 27.299099 22.179188 -249.918839 -32.376911 41.867859 1.016868 252.381805
[R_mid_tent01]
14 23.228794 24.509907 226.238495 82.131340 -23.515974 172.010300 228.744751
15 23.228794 24.509907 226.238495 79.774040 -25.806076 175.885574 228.744751
[spine01]
14 -0.361383 -0.195265 0.000000 -0.083420 -0.038742 22.683754 0.410763
15 -0.361383 -0.195265 0.000000 -0.081472 -0.037466 22.661890 0.410763
[Bip01_Neck]
14 165.484543 71.581718 0.000119 175.896118 1.177290 24.871183 180.302734
15 165.484543 71.581718 0.000119 175.896118 1.177290 24.871185 180.302734
[L_humerus]
14 -13.983130 -135.272980 -120.471481 -4.824162 64.744591 85.223747 181.680161
15 -13.983130 -135.272980 -120.471481 -4.849648 64.930740 85.197227 181.680161
[R_humerus]
14 -13.983309 -135.273102 125.287651 83.931625 -23.892979 2.973440 184.909012
15 -13.983309 -135.273102 125.287651 82.141884 -29.340622 4.943150 184.909012
[weapon_bone]
14 235.964890 -300.705902 0.000000 0.000000 -89.951546 -128.212341 382.234833
15 235.964890 -300.705902 0.000000 0.000000 -89.951546 -128.212341 382.234833
[Bip01_Head]
14 240.353592 184.829285 -9.731121 -45.547268 5.845059 -62.457203 303.358551
15 239.265182 188.761017 -9.911518 -46.646385 5.844641 -62.456821 304.920959
[eye_left_bone]
14 1.956329 119.927887 -57.318352 0.000000 -90.000000 -99.840431 132.935760
15 1.932983 119.932739 -57.324936 0.000000 -90.000000 -99.840431 132.942642
[eye_right_bone]
14 1.961609 119.925453 71.782219 0.000000 -89.965736 80.156380 139.780716
15 1.938232 119.930290 71.775635 0.000000 -89.965736 80.156380 139.781158
[L_forearm]
14 322.776093 0.000000 -0.000119 0.000430 -0.002307 -111.131783 322.776093
15 322.776093 0.000000 -0.000119 0.000429 -0.002308 -111.044777 322.776093
[L_front_hand]
14 241.149185 -0.042021 -3.300071 -178.667953 -1.835447 -27.422342 241.171753
15 241.149185 -0.042021 -3.300071 -178.667953 -1.835447 -27.422350 241.171753
[L_weapon_bone]
14 156.183838 0.000000 0.000000 0.000014 0.000007 0.000001 156.183838
15 156.183838 0.000000 0.000000 0.000014 0.000007 0.000001 156.183838
[L_front_hand01_01]
14 86.095154 20.947098 -0.655860 -0.366594 -0.477154 75.385574 88.609184
15 86.095154 20.947098 -0.655860 -0.366594 -0.477154 75.385574 88.609184
[L_front_hand02_01]
14 86.935165 -11.437475 24.513514 154.403519 -59.888931 -61.371990 91.046425
15 86.935165 -11.437475 24.513514 154.403519 -59.888931 -61.371990 91.046425
[L_front_hand03_01]
14 86.637497 -14.123976 -20.424902 -153.913849 58.118122 -62.702866 90.126129
15 86.637497 -14.123976 -20.424902 -153.913864 58.118130 -62.702873 90.126129
[L_front_hand01_02]
14 71.020905 -0.000179 0.000030 0.000334 -0.002323 -106.379684 71.020905
15 71.020905 -0.000179 0.000030 0.000334 -0.002323 -106.379684 71.020905
[L_front_hand02_02]
14 71.020927 -0.000119 0.000060 0.000334 -0.002323 -106.379684 71.020927
15 71.020927 -0.000119 0.000060 0.000334 -0.002323 -106.379684 71.020927
[L_front_hand03_02]
14 71.020905 -0.000060 0.000060 0.000334 -0.002323 -106.379684 71.020905
15 71.020905 -0.000060 0.000060 0.000334 -0.002323 -106.379684 71.020905
[R_forearm]
14 322.776428 -0.000060 0.000030 -0.011802 -0.210836 1.940470 322.776428
15 322.776428 -0.000060 0.000030 -0.003006 -0.211009 -0.151659 322.776428
[R_front_hand]
14 238.847015 -0.006795 2.210259 -40.206936 2.482663 -4.178692 238.857239
15 238.847015 -0.006795 2.210259 33.833553 0.475528 -2.526496 238.857239
[R_weapon_bone]
14 155.664093 0.002503 -0.000030 0.003487 0.001180 -90.988930 155.664078
15 155.664093 0.002503 -0.000030 0.003487 0.001180 -90.988930 155.664078
[R_front_hand01_01]
14 87.624611 14.231146 22.918642 -154.633499 -59.950634 61.746063 91.683487
15 87.624611 14.231146 22.918642 -154.633499 -59.950619 61.746044 91.683487
[R_front_hand02_01]
14 89.356956 14.367283 -19.491137 154.602661 58.302849 63.744389 92.579636
15 89.356956 14.367283 -19.491137 154.602661 58.302849 63.744389 92.579636
[R_front_hand03_01]
14 87.286232 -22.307278 -0.143439 0.162155 -0.423168 -75.767921 90.091743
15 87.286232 -22.307278 -0.143439 0.162155 -0.423168 -75.767921 90.091743
[R_front_hand01_02]
14 71.020905 0.000060 0.000119 0.001777 0.001534 8.377220 71.020905
15 71.020905 0.000060 0.000119 0.001777 0.001534 8.377220 71.020905
[R_front_hand02_02]
14 71.020844 -0.000030 -0.000119 0.001777 0.001534 8.377220 71.020836
15 71.020844 -0.000030 -0.000119 0.001777 0.001534 8.377220 71.020836
[R_front_hand03_02]
14 71.020905 0.000000 0.000030 0.001777 0.001534 8.377220 71.020905
15 71.020905 0.000000 0.000030 0.001777 0.001534 8.377220 71.020905
[null_rope01_connect]
14 328.732483 0.000000 -0.000238 163.594910 -57.849529 -53.742962 328.732483
15 328.732483 0.000000 -0.000238 179.876892 -60.551842 -65.475014 328.732483
[Rope1_Seg01]
14 0.000011 -0.000054 0.000066 -3.958781 -20.478834 -65.707962 0.000086
15 0.000015 -0.000053 0.000071 -5.509297 -21.182911 -62.542377 0.000090
[Rope1_Seg02]
14 139.999863 -0.000179 0.000000 5.297338 -0.347788 -15.029133 139.999863
15 139.999863 -0.000179 0.000000 4.669276 -4.112293 -11.865471 139.999863
[Rope1_Seg03]
14 139.999924 0.000060 -0.000060 30.171364 -4.331862 -36.533127 139.999924
15 139.999924 0.000060 -0.000060 22.044352 -12.766969 -31.954163 139.999924
[Rope1_Seg04]
14 139.999924 -0.000060 -0.000119 41.058014 -18.663733 -27.637112 139.999924
15 139.999924 -0.000060 -0.000119 31.546265 -24.684326 -31.090759 139.999924
[Rope1_Seg05]
14 139.999832 0.000119 -0.000060 34.686424 -43.597839 -22.095097 139.999832
15 139.999832 0.000119 -0.000060 35.851936 -56.676830 -37.948685 139.999832
[Rope1_Seg06]
14 139.999954 0.000119 -0.000060 0.578601 -36.719173 2.973140 139.999954
15 139.999954 0.000119 -0.000060 -3.512180 -27.154875 -3.706710 139.999954
[Rope1_Seg07]
14 139.999985 0.000060 0.000000 -1.720179 -9.733986 1.041688 139.999985
15 139.999985 0.000060 0.000000 -2.014864 -6.575720 -1.378921 139.999985
[Rope1_Seg09]
14 121.602913 0.000119 -0.000089 -89.793175 -1.359789 0.847147 121.602913
15 121.602913 0.000119 -0.000089 -89.793175 -1.359789 0.847147 121.602913
[L_mid_hand01]
14 103.859421 1.038730 8.195221 114.520287 -53.310486 -20.623234 104.187431
15 103.859421 1.038730 8.195221 114.520294 -53.310486 -20.623238 104.187431
[L_mid_hand02]
14 105.572853 -4.139662 -10.864139 -155.067673 38.166626 -52.448818 106.211075
15 105.572853 -4.139662 -10.864139 -155.067673 38.166634 -52.448826 106.211075
[L_mid_hand03]
14 104.641464 17.579376 -3.913581 -10.970130 15.317461 57.626949 106.179977
15 104.641464 17.579376 -3.913581 -10.970130 15.317461 57.626949 106.179977
[null_rope02_connect]
14 328.732849 0.000179 -0.000119 -162.439545 -20.484896 118.508438 328.732849
15 328.732849 0.000179 -0.000119 -161.392029 -18.228182 118.679794 328.732849
[Rope2_Seg01]
14 0.000095 0.000153 0.000033 -10.235289 28.073357 108.191528 0.000183
15 0.000095 0.000153 0.000036 -3.896059 27.423998 114.558739 0.000183
[Rope2_Seg02]
14 139.999741 -0.000060 -0.000119 -0.772050 0.851468 -1.611558 139.999756
15 139.999741 -0.000060 -0.000119 -0.566942 1.522788 -1.469981 139.999756
[Rope2_Seg03]
14 140.000107 0.000030 0.000000 -0.660716 1.046137 -1.577241 140.000107
15 140.000107 0.000030 0.000000 -0.615387 1.852142 -1.754437 140.000107
[Rope2_Seg04]
14 139.999802 0.000000 -0.000060 -0.466586 1.904168 -1.682994 139.999802
15 139.999802 0.000000 -0.000060 -0.736561 3.650099 -2.817874 139.999802
[Rope2_Seg05]
14 139.999985 -0.000060 0.000119 -0.907654 -0.997271 -1.226979 139.999985
15 139.999985 -0.000060 0.000119 -0.759881 1.960343 -2.291845 139.999985
[Rope2_Seg06]
14 139.999893 -0.000030 -0.000119 -1.023352 -2.546337 -0.623662 139.999893
15 139.999893 -0.000030 -0.000119 -0.455037 -2.470181 0.303336 139.999893
[Rope2_Seg07]
14 139.999893 0.000060 -0.000060 -0.665528 -1.148956 -0.545617 139.999893
15 139.999893 0.000060 -0.000060 -0.328949 -0.972907 -0.089516 139.999893
[Rope2_Seg09]
14 121.338966 0.000089 -0.000060 -28.679514 0.545860 -1.505949 121.338966
15 121.338966 0.000089 -0.000060 54.100483 0.545947 -1.506398 121.338966
[R_mid_hand01]
14 104.680779 11.144459 -10.335981 -16.212070 45.237247 70.462852 105.778534
15 104.680779 11.144459 -10.335981 -16.571243 45.135548 69.956093 105.778534
[R_mid_hand02]
14 104.070427 2.443552 8.231699 49.067387 -67.749794 39.286457 104.424065
15 104.070427 2.443552 8.231699 49.667553 -67.470291 38.640572 104.424065
[R_mid_hand03]
14 106.028137 -11.221827 -5.996406 -177.101105 15.551024 -76.585571 106.788818
15 106.028137 -11.221827 -5.996406 -176.995804 15.531577 -76.195831 106.788818
[spine02]
14 129.756927 0.001550 0.000119 -0.455868 -15.389318 -3.116193 129.756927
15 129.756927 0.001550 0.000119 -0.454351 -15.369420 -3.131380 129.756927
[spine03]
14 78.614044 0.081568 -4.899014 2.031922 3.760650 18.534227 78.766579
15 78.614044 0.081563 -4.899014 2.026677 3.762556 18.448843 78.766579
[pelvis]
14 169.435242 0.051022 0.000000 -0.062899 -0.179390 15.639079 169.435257
15 169.435242 0.051022 0.000000 -0.062778 -0.179433 15.561712 169.435257
[null_rope03_connect]
14 -1.257226 -2.466202 137.391083 98.111115 -26.623896 -43.124924 137.418976
15 -1.257226 -2.466202 137.391083 103.850197 -25.037943 -44.716045 137.418976
[null_rope04_connect]
14 -1.259640 -2.480268 -137.844437 98.111115 -26.623896 -43.124924 137.872513
15 -1.259640 -2.480268 -137.844437 103.850197 -25.037943 -44.716045 137.872513
[Rope3_Seg01]
14 0.000000 0.000000 0.000000 -157.838531 -51.641617 -50.879074 0.000000
15 0.000000 0.000000 0.000000 107.530777 -59.175423 23.495914 0.000000
[Rope3_Seg02]
14 139.999924 -0.000119 0.000060 -1.626772 1.211847 -3.300522 139.999924
15 139.999924 -0.000119 0.000060 -33.082573 20.752863 -20.358276 139.999924
[Rope3_Seg03]
14 139.999924 -0.000119 0.000119 -2.954934 2.020562 -5.064462 139.999924
15 139.999924 -0.000119 0.000119 -24.546587 33.400673 -9.966462 139.999924
[Rope3_Seg04]
14 139.999924 0.000119 0.000000 -6.700286 4.052845 -8.894201 139.999924
15 139.999924 0.000119 0.000000 -4.149104 19.917055 3.605022 139.999924
[Rope3_Seg05]
14 139.999924 -0.000238 0.000060 -22.086699 11.538819 -19.774984 139.999924
15 139.999924 -0.000238 0.000060 -0.041895 12.264987 5.152093 139.999924
[Rope3_Seg06]
14 139.999893 -0.000119 -0.000060 -35.791618 25.470335 -22.544432 139.999893
15 139.999893 -0.000119 -0.000060 0.860760 7.375650 3.021208 139.999893
[Rope3_Seg07]
14 139.999771 0.000060 -0.000119 -17.959766 34.415142 -5.900243 139.999771
15 139.999771 0.000060 -0.000119 1.010899 4.637536 1.695935 139.999771
[Rope3_Seg08]
14 139.999985 -0.000060 0.000000 -1.704231 29.419077 4.239801 139.999985
15 139.999985 -0.000060 0.000000 0.920600 2.788658 0.964073 139.999985
[Rope3_Seg09]
14 90.185997 -0.000179 -0.000060 77.504433 -1.359393 -0.848007 90.185997
15 90.185997 -0.000179 -0.000060 82.666672 -1.361390 -0.846123 90.185997
[R_rear_hand01]
14 103.366196 -6.073594 -10.757982 -158.916748 13.108848 -19.868183 104.101845
15 103.366196 -6.073594 -10.757982 -156.049316 6.070419 -2.795869 104.101845
[R_rear_hand02]
14 100.509819 12.039542 -7.992327 -36.772438 13.178924 19.981617 101.543350
15 100.509819 12.039542 -7.992327 -38.708435 1.958051 5.461187 101.543350
[R_rear_hand03]
14 101.539970 5.215704 5.435467 83.929710 -20.503857 5.995968 101.819031
15 101.539970 5.215704 5.435467 84.307625 -2.361032 4.099037 101.819031
[Rope4_Seg01]
14 -0.000015 -0.000043 -0.000153 7.865244 -18.280472 -35.570770 0.000159
15 -0.000015 -0.000041 -0.000153 -5.430039 -15.437427 -24.717421 0.000159
[Rope4_Seg02]
14 139.999985 0.000060 0.000119 -1.788311 -9.624837 -2.384479 139.999985
15 139.999985 0.000060 0.000119 -0.493773 -11.118896 -4.717040 139.999985
[Rope4_Seg03]
14 139.999924 0.000000 -0.000238 -1.100837 -13.958046 -4.025167 139.999924
15 139.999924 0.000000 -0.000238 0.395811 -16.032349 -7.230912 139.999924
[Rope4_Seg04]
14 139.999985 0.000000 0.000119 0.315274 -18.467129 -6.305971 139.999985
15 139.999985 0.000000 0.000119 1.906163 -19.581045 -10.540349 139.999985
[Rope4_Seg05]
14 139.999802 -0.000060 -0.000119 1.593360 -18.586626 -8.666612 139.999802
15 139.999802 -0.000060 -0.000119 1.179675 -14.441276 -9.866166 139.999802
[Rope4_Seg06]
14 139.999924 0.000000 0.000060 0.868325 -8.930019 -2.963604 139.999924
15 139.999924 0.000000 0.000060 0.576302 -7.232592 -2.582149 139.999924
[Rope4_Seg07]
14 139.999802 0.000000 0.000000 2.043237 -8.102780 -0.262072 139.999802
15 139.999802 0.000000 0.000000 2.366256 -9.113972 0.899860 139.999802
[Rope4_Seg08]
14 139.999924 0.000000 0.000119 7.824055 -16.920904 4.722314 139.999924
15 139.999924 0.000000 0.000119 16.267746 -29.438242 13.472514 139.999924
[Rope4_Seg09]
14 90.185791 0.000060 0.000060 -135.617828 2.228885 0.850567 90.185791
15 90.185791 0.000060 0.000060 -135.617828 2.228885 0.850567 90.185791
[L_rear_hand01]
14 101.696655 -8.392275 -7.654577 -19.915020 -33.950905 119.950104 102.329041
15 101.696655 -8.392275 -7.654577 -19.915022 -33.950897 119.950104 102.329041
[L_rear_hand02]
14 102.726799 -1.568258 5.773216 77.862221 61.878510 165.399200 102.900848
15 102.726799 -1.568258 5.773216 77.862228 61.878525 165.399200 102.900848
[L_rear_hand03]
14 104.552910 9.721220 -10.420293 -173.099182 -23.740307 -117.327896 105.519653
15 104.552910 9.721220 -10.420293 -173.099182 -23.740307 -117.327896 105.519653
